Title: Poulet aux Prunes

Country: France/2011

Directors: Vincent Paronnaud, Marjane Satrapi

Writers: Vincent Paronnaud (screenplay), Marjane Satrapi (screenplay)

Stars: Mathieu Amalric, Edouard Baer and Maria de Medeiros

Language: French

Plot: Nasser-Ali, a talented musician, loses the will to live after his wife breaks his beloved violin during an argument. He searches for a replacement, and finding none that sounds quite the same, he vows to die. Eight days later, he does. This is the story of his last week of life, where we see flashbacks and flash forwards of his previous life and his children's futures. We also see appearances of a nude Sophia Loren as well as the angel of death, Azarel. As we see his life, we realize exactly why he chose to end it and the profundity of this choice.

Imdb: http://www.imdb.com/title/tt1663321/

Rip Specs:


General
Complete name                : Poulet.Aux.Prunes.2011.BRRip.AC3.HORiZON-ArtSubs.avi
Format                           : AVI
Format/Info                      : Audio Video Interleave
File size                        : 1.47 GiB
Duration                         : 1h 31mn
Overall bit rate                 : 2 289 Kbps
Writing application              : FairUse Wizard - http://fairusewizard.com
Writing library                  : The best and REALLY easy backup tool

Video
ID                               : 0
Format                           : MPEG-4 Visual
Format profile                   : Advanced Simple@L5
Format settings, BVOP            : 1
Format settings, QPel            : No
Format settings, GMC             : No warppoints
Format settings, Matrix          : Default (H.263)
Muxing mode                      : Packed bitstream
Codec ID                         : XVID
Codec ID/Hint                    : XviD
Duration                         : 1h 31mn
Bit rate                         : 1 832 Kbps
Width                            : 704 pixels
Height                           : 336 pixels
Display aspect ratio             : 2.095
Frame rate                       : 23.976 fps
Color space                      : YUV
Chroma subsampling               : 4:2:0
Bit depth                        : 8 bits
Scan type                        : Progressive
Compression mode                 : Lossy
Bits/(Pixel*Frame)               : 0.323
Stream size                      : 1.17 GiB (80%)
Writing library                  : XviD 1.1.0 (UTC 2005-11-22)

Audio
ID                               : 1
Format                           : AC-3
Format/Info                      : Audio Coding 3
Mode extension                   : CM (complete main)
Codec ID                         : 2000
Duration                         : 1h 31mn
Bit rate mode                    : Constant
Bit rate                         : 448 Kbps
Channel(s)                       : 6 channels
Channel positions                : Front: L C R, Side: L R, LFE
Sampling rate                    : 48.0 KHz
Bit depth                        : 16 bits
Compression mode                 : Lossy
Stream size                      : 294 MiB (20%)
Alignment                        : Split accross interleaves
Interleave, duration             : 42 ms (1.00 video frame)
Interleave, preload duration     : 500 ms
